<?xml version="1.0" encoding="UTF-8"?>
<svg xmlns="http://www.w3.org/2000/svg" width="1200" height="900" viewBox="0 0 1200 900" role="img" aria-labelledby="title desc">
  <title id="title">Ceramic Desk Tray</title>
  <desc id="desc">Local Solace Supply product image for Ceramic Desk Tray</desc>
  <defs>
    <linearGradient id="bg" x1="0" y1="0" x2="1" y2="1">
      <stop offset="0" stop-color="#fbfaf6"/>
      <stop offset=".48" stop-color="#c8d9ed"/>
      <stop offset="1" stop-color="#f4efe5"/>
    </linearGradient>
    <linearGradient id="toteFill" x1="0" y1="0" x2="1" y2="1">
      <stop offset="0" stop-color="#c8d9ed"/>
      <stop offset="1" stop-color="#9caf98"/>
    </linearGradient>
    <linearGradient id="glassFill" x1="0" y1="0" x2="1" y2="1">
      <stop offset="0" stop-color="#ffffff" stop-opacity=".78"/>
      <stop offset="1" stop-color="#dce7db" stop-opacity=".58"/>
    </linearGradient>
    <linearGradient id="ceramicFill" x1="0" y1="0" x2="1" y2="1">
      <stop offset="0" stop-color="#f8f1e8"/>
      <stop offset=".55" stop-color="#abc1d5"/>
      <stop offset="1" stop-color="#d9d1c4"/>
    </linearGradient>
    <linearGradient id="boxFill" x1="0" y1="0" x2="1" y2="1">
      <stop offset="0" stop-color="#c8d9ed"/>
      <stop offset=".6" stop-color="#d9a38b"/>
      <stop offset="1" stop-color="#abc1d5"/>
    </linearGradient>
    <filter id="softShadow" x="-20%" y="-20%" width="140%" height="140%">
      <feDropShadow dx="0" dy="22" stdDeviation="28" flood-color="#173326" flood-opacity=".18"/>
    </filter>
  </defs>
  <rect width="1200" height="900" fill="url(#bg)"/>
  <circle cx="1050" cy="118" r="170" fill="#fff" opacity=".28"/>
  <circle cx="155" cy="735" r="210" fill="#fff" opacity=".32"/>
  <g filter="url(#softShadow)">
    <ellipse cx="610" cy="730" rx="350" ry="52" fill="#000" opacity=".08"/>
    <path d="M315 455 C330 365 414 315 530 318 L750 323 C858 326 925 385 928 474 C932 587 839 677 662 694 L512 708 C395 718 300 648 294 555 C292 522 301 485 315 455 Z" fill="url(#ceramicFill)" stroke="#173326" stroke-width="10"/>
    <path d="M396 470 C427 414 495 389 585 395 L722 402 C800 407 850 444 852 502 C854 574 786 624 665 637 L526 652 C448 661 378 619 373 556 C371 529 382 495 396 470 Z" fill="#fbfaf6" opacity=".74" stroke="#fff" stroke-width="8"/>
    <rect x="500" y="345" width="200" height="42" rx="21" fill="#3d4640" opacity=".9"/>
    <rect x="465" y="322" width="92" height="45" rx="18" fill="#d9a38b" transform="rotate(-12 511 345)"/>
    <circle cx="740" cy="460" r="36" fill="#9caf98" opacity=".9"/>
    <path d="M452 575 L580 535" stroke="#173326" stroke-width="14" stroke-linecap="round" opacity=".7"/>
    <path d="M600 528 L690 500" stroke="#173326" stroke-width="9" stroke-linecap="round" opacity=".35"/>
  </g>
  <g transform="translate(86 82)">
    <rect x="0" y="0" width="290" height="84" rx="42" fill="#fff" opacity=".72"/>
    <text x="32" y="36" font-family="Inter, Arial, sans-serif" font-size="18" font-weight="800" fill="#173326" letter-spacing="2">DESK</text>
    <text x="32" y="62" font-family="Inter, Arial, sans-serif" font-size="18" font-weight="700" fill="#647067">Solace Supply</text>
  </g>
  <text x="86" y="824" font-family="Inter, Arial, sans-serif" font-size="42" font-weight="900" fill="#173326">Ceramic Desk Tray</text>
</svg>