<?xml version="1.0" encoding="UTF-8"?>
<svg xmlns="http://www.w3.org/2000/svg" width="1200" height="900" viewBox="0 0 1200 900" role="img" aria-labelledby="title desc">
  <title id="title">Linen Utility Tote</title>
  <desc id="desc">Local Solace Supply product image for Linen Utility Tote</desc>
  <defs>
    <linearGradient id="bg" x1="0" y1="0" x2="1" y2="1">
      <stop offset="0" stop-color="#fbfaf6"/>
      <stop offset=".48" stop-color="#e8f2dd"/>
      <stop offset="1" stop-color="#f4efe5"/>
    </linearGradient>
    <linearGradient id="toteFill" x1="0" y1="0" x2="1" y2="1">
      <stop offset="0" stop-color="#e8f2dd"/>
      <stop offset="1" stop-color="#9caf98"/>
    </linearGradient>
    <linearGradient id="glassFill" x1="0" y1="0" x2="1" y2="1">
      <stop offset="0" stop-color="#ffffff" stop-opacity=".78"/>
      <stop offset="1" stop-color="#dce7db" stop-opacity=".58"/>
    </linearGradient>
    <linearGradient id="ceramicFill" x1="0" y1="0" x2="1" y2="1">
      <stop offset="0" stop-color="#f8f1e8"/>
      <stop offset=".55" stop-color="#abc1d5"/>
      <stop offset="1" stop-color="#d9d1c4"/>
    </linearGradient>
    <linearGradient id="boxFill" x1="0" y1="0" x2="1" y2="1">
      <stop offset="0" stop-color="#e8f2dd"/>
      <stop offset=".6" stop-color="#d9a38b"/>
      <stop offset="1" stop-color="#abc1d5"/>
    </linearGradient>
    <filter id="softShadow" x="-20%" y="-20%" width="140%" height="140%">
      <feDropShadow dx="0" dy="22" stdDeviation="28" flood-color="#173326" flood-opacity=".18"/>
    </filter>
  </defs>
  <rect width="1200" height="900" fill="url(#bg)"/>
  <circle cx="1050" cy="118" r="170" fill="#fff" opacity=".28"/>
  <circle cx="155" cy="735" r="210" fill="#fff" opacity=".32"/>
  <g filter="url(#softShadow)">
    <ellipse cx="610" cy="725" rx="315" ry="45" fill="#000" opacity=".08"/>
    <path d="M415 335 C430 235 515 190 600 190 C685 190 770 235 785 335" fill="none" stroke="#173326" stroke-width="34" stroke-linecap="round"/>
    <path d="M350 320 C342 304 353 285 371 284 L829 284 C847 285 858 304 850 320 L790 710 C787 732 769 748 746 748 L404 748 C381 748 363 732 360 710 Z" fill="url(#toteFill)" stroke="#173326" stroke-width="10"/>
    <path d="M430 350 L392 690" stroke="#fff" stroke-width="7" opacity=".45"/>
    <path d="M765 350 L724 690" stroke="#7d8f82" stroke-width="7" opacity=".32"/>
    <rect x="475" y="446" width="250" height="160" rx="28" fill="#fff" opacity=".22" stroke="#fff" stroke-width="6"/>
    <circle cx="455" cy="352" r="16" fill="#173326"/>
    <circle cx="745" cy="352" r="16" fill="#173326"/>
  </g>
  <g transform="translate(86 82)">
    <rect x="0" y="0" width="290" height="84" rx="42" fill="#fff" opacity=".72"/>
    <text x="32" y="36" font-family="Inter, Arial, sans-serif" font-size="18" font-weight="800" fill="#173326" letter-spacing="2">BAGS</text>
    <text x="32" y="62" font-family="Inter, Arial, sans-serif" font-size="18" font-weight="700" fill="#647067">Solace Supply</text>
  </g>
  <text x="86" y="824" font-family="Inter, Arial, sans-serif" font-size="42" font-weight="900" fill="#173326">Linen Utility Tote</text>
</svg>