<?xml version="1.0" encoding="UTF-8"?>
<svg xmlns="http://www.w3.org/2000/svg" width="1200" height="900" viewBox="0 0 1200 900" role="img" aria-labelledby="title desc">
  <title id="title">Stackable Pantry Set</title>
  <desc id="desc">Local Solace Supply product image for Stackable Pantry Set</desc>
  <defs>
    <linearGradient id="bg" x1="0" y1="0" x2="1" y2="1">
      <stop offset="0" stop-color="#fbfaf6"/>
      <stop offset=".48" stop-color="#f7d7c3"/>
      <stop offset="1" stop-color="#f4efe5"/>
    </linearGradient>
    <linearGradient id="toteFill" x1="0" y1="0" x2="1" y2="1">
      <stop offset="0" stop-color="#f7d7c3"/>
      <stop offset="1" stop-color="#9caf98"/>
    </linearGradient>
    <linearGradient id="glassFill" x1="0" y1="0" x2="1" y2="1">
      <stop offset="0" stop-color="#ffffff" stop-opacity=".78"/>
      <stop offset="1" stop-color="#dce7db" stop-opacity=".58"/>
    </linearGradient>
    <linearGradient id="ceramicFill" x1="0" y1="0" x2="1" y2="1">
      <stop offset="0" stop-color="#f8f1e8"/>
      <stop offset=".55" stop-color="#abc1d5"/>
      <stop offset="1" stop-color="#d9d1c4"/>
    </linearGradient>
    <linearGradient id="boxFill" x1="0" y1="0" x2="1" y2="1">
      <stop offset="0" stop-color="#f7d7c3"/>
      <stop offset=".6" stop-color="#d9a38b"/>
      <stop offset="1" stop-color="#abc1d5"/>
    </linearGradient>
    <filter id="softShadow" x="-20%" y="-20%" width="140%" height="140%">
      <feDropShadow dx="0" dy="22" stdDeviation="28" flood-color="#173326" flood-opacity=".18"/>
    </filter>
  </defs>
  <rect width="1200" height="900" fill="url(#bg)"/>
  <circle cx="1050" cy="118" r="170" fill="#fff" opacity=".28"/>
  <circle cx="155" cy="735" r="210" fill="#fff" opacity=".32"/>
  <g filter="url(#softShadow)">
    <ellipse cx="610" cy="735" rx="360" ry="50" fill="#000" opacity=".08"/>
    <rect x="285" y="620" width="630" height="48" rx="24" fill="#173326" opacity=".14"/>
    <g transform="translate(310 190)">
      <rect x="0" y="120" width="175" height="410" rx="42" fill="url(#glassFill)" stroke="#173326" stroke-width="9"/>
      <rect x="25" y="82" width="125" height="72" rx="20" fill="#d9a38b" stroke="#173326" stroke-width="7"/>
      <path d="M34 270 C78 242 117 292 164 255 L164 492 L34 492 Z" fill="#9caf98" opacity=".55"/>
      <circle cx="88" cy="345" r="42" fill="#fbfaf6" opacity=".55"/>
    </g>
    <g transform="translate(512 130)">
      <rect x="0" y="150" width="205" height="470" rx="48" fill="url(#glassFill)" stroke="#173326" stroke-width="10"/>
      <rect x="30" y="92" width="145" height="92" rx="22" fill="#9caf98" stroke="#173326" stroke-width="8"/>
      <path d="M42 332 C93 292 150 358 194 312 L194 584 L42 584 Z" fill="#d9a38b" opacity=".55"/>
      <circle cx="104" cy="440" r="54" fill="#fbfaf6" opacity=".52"/>
    </g>
    <g transform="translate(742 250)">
      <rect x="0" y="105" width="155" height="350" rx="38" fill="url(#glassFill)" stroke="#173326" stroke-width="8"/>
      <rect x="24" y="62" width="108" height="66" rx="18" fill="#abc1d5" stroke="#173326" stroke-width="7"/>
      <path d="M28 245 C62 220 101 263 147 229 L147 424 L28 424 Z" fill="#9caf98" opacity=".58"/>
    </g>
  </g>
  <g transform="translate(86 82)">
    <rect x="0" y="0" width="290" height="84" rx="42" fill="#fff" opacity=".72"/>
    <text x="32" y="36" font-family="Inter, Arial, sans-serif" font-size="18" font-weight="800" fill="#173326" letter-spacing="2">HOME</text>
    <text x="32" y="62" font-family="Inter, Arial, sans-serif" font-size="18" font-weight="700" fill="#647067">Solace Supply</text>
  </g>
  <text x="86" y="824" font-family="Inter, Arial, sans-serif" font-size="42" font-weight="900" fill="#173326">Stackable Pantry Set</text>
</svg>